<svg id="visual" viewBox="0 0 900 600" width="900" height="600" xmlns="http://www.w3.org/2000/svg" xmlns:xlink="http://www.w3.org/1999/xlink" version="1.1"><path d="M0 157L50 157L50 175L100 175L100 253L150 253L150 127L200 127L200 157L250 157L250 265L300 265L300 91L350 91L350 199L400 199L400 157L450 157L450 265L500 265L500 103L550 103L550 187L600 187L600 127L650 127L650 235L700 235L700 91L750 91L750 169L800 169L800 265L850 265L850 127L900 127L900 247L900 0L900 0L850 0L850 0L800 0L800 0L750 0L750 0L700 0L700 0L650 0L650 0L600 0L600 0L550 0L550 0L500 0L500 0L450 0L450 0L400 0L400 0L350 0L350 0L300 0L300 0L250 0L250 0L200 0L200 0L150 0L150 0L100 0L100 0L50 0L50 0L0 0Z" fill="#283e67"></path><path d="M0 361L50 361L50 367L100 367L100 379L150 379L150 325L200 325L200 301L250 301L250 361L300 361L300 271L350 271L350 319L400 319L400 373L450 373L450 361L500 361L500 277L550 277L550 271L600 271L600 343L650 343L650 331L700 331L700 295L750 295L750 343L800 343L800 361L850 361L850 385L900 385L900 337L900 245L900 125L850 125L850 263L800 263L800 167L750 167L750 89L700 89L700 233L650 233L650 125L600 125L600 185L550 185L550 101L500 101L500 263L450 263L450 155L400 155L400 197L350 197L350 89L300 89L300 263L250 263L250 155L200 155L200 125L150 125L150 251L100 251L100 173L50 173L50 155L0 155Z" fill="#356981"></path><path d="M0 439L50 439L50 433L100 433L100 415L150 415L150 415L200 415L200 373L250 373L250 403L300 403L300 367L350 367L350 397L400 397L400 439L450 439L450 409L500 409L500 367L550 367L550 349L600 349L600 397L650 397L650 397L700 397L700 361L750 361L750 427L800 427L800 421L850 421L850 433L900 433L900 409L900 335L900 383L850 383L850 359L800 359L800 341L750 341L750 293L700 293L700 329L650 329L650 341L600 341L600 269L550 269L550 275L500 275L500 359L450 359L450 371L400 371L400 317L350 317L350 269L300 269L300 359L250 359L250 299L200 299L200 323L150 323L150 377L100 377L100 365L50 365L50 359L0 359Z" fill="#699293"></path><path d="M0 499L50 499L50 511L100 511L100 469L150 469L150 535L200 535L200 481L250 481L250 481L300 481L300 481L350 481L350 553L400 553L400 487L450 487L450 511L500 511L500 493L550 493L550 499L600 499L600 559L650 559L650 493L700 493L700 499L750 499L750 493L800 493L800 475L850 475L850 511L900 511L900 535L900 407L900 431L850 431L850 419L800 419L800 425L750 425L750 359L700 359L700 395L650 395L650 395L600 395L600 347L550 347L550 365L500 365L500 407L450 407L450 437L400 437L400 395L350 395L350 365L300 365L300 401L250 401L250 371L200 371L200 413L150 413L150 413L100 413L100 431L50 431L50 437L0 437Z" fill="#a7b9af"></path><path d="M0 601L50 601L50 601L100 601L100 601L150 601L150 601L200 601L200 601L250 601L250 601L300 601L300 601L350 601L350 601L400 601L400 601L450 601L450 601L500 601L500 601L550 601L550 601L600 601L600 601L650 601L650 601L700 601L700 601L750 601L750 601L800 601L800 601L850 601L850 601L900 601L900 601L900 533L900 509L850 509L850 473L800 473L800 491L750 491L750 497L700 497L700 491L650 491L650 557L600 557L600 497L550 497L550 491L500 491L500 509L450 509L450 485L400 485L400 551L350 551L350 479L300 479L300 479L250 479L250 479L200 479L200 533L150 533L150 467L100 467L100 509L50 509L50 497L0 497Z" fill="#e0e1dd"></path></svg>